<svg width="39.411" height="39.411" xmlns="http://www.w3.org/2000/svg">

 <g>
  <title>background</title>
  <rect fill="#000000" id="canvas_background" height="41.411" width="41.411" y="-1" x="-1"/>
 </g>
 <g>
  <title>Layer 1</title>
  <g id="svg_1">
   <g id="svg_2">
    <g id="svg_3">
     <path stroke="#ffffff" id="svg_4" d="m19.7058,23.411c-0.076,0 -0.153,-0.018 -0.224,-0.053l-15.845,-7.921c-0.169,-0.085 -0.276,-0.258 -0.276,-0.447s0.107,-0.362 0.276,-0.447l12.632,-6.315c0.247,-0.123 0.547,-0.024 0.671,0.224c0.123,0.247 0.023,0.547 -0.224,0.671l-11.737,5.866l14.727,7.363l14.727,-7.363l-11.58,-5.79c-0.247,-0.124 -0.347,-0.424 -0.224,-0.671c0.125,-0.247 0.425,-0.345 0.671,-0.224l12.475,6.237c0.169,0.085 0.276,0.258 0.276,0.447s-0.107,0.362 -0.276,0.447l-15.845,7.922c-0.071,0.037 -0.148,0.054 -0.224,0.054z"/>
     <path stroke="#ffffff" id="svg_5" d="m19.7058,39.411c-0.076,0 -0.153,-0.018 -0.224,-0.053l-15.845,-7.921c-0.247,-0.124 -0.347,-0.424 -0.224,-0.671c0.125,-0.247 0.424,-0.345 0.671,-0.224l15.621,7.81l15.621,-7.81c0.248,-0.122 0.547,-0.023 0.671,0.224c0.123,0.247 0.023,0.547 -0.224,0.671l-15.845,7.922c-0.069,0.035 -0.146,0.052 -0.222,0.052z"/>
     <path stroke="#ffffff" id="svg_6" d="m35.5498,31.489c-0.276,0 -0.5,-0.224 -0.5,-0.5l0,-16c0,-0.276 0.224,-0.5 0.5,-0.5s0.5,0.224 0.5,0.5l0,16c0,0.277 -0.223,0.5 -0.5,0.5z"/>
     <path stroke="#ffffff" id="svg_7" d="m19.7058,39.411c-0.276,0 -0.5,-0.224 -0.5,-0.5l0,-16c0,-0.276 0.224,-0.5 0.5,-0.5s0.5,0.224 0.5,0.5l0,16c0,0.277 -0.224,0.5 -0.5,0.5z"/>
     <path stroke="#ffffff" id="svg_8" d="m3.8608,31.489c-0.276,0 -0.5,-0.224 -0.5,-0.5l0,-16c0,-0.276 0.224,-0.5 0.5,-0.5s0.5,0.224 0.5,0.5l0,16c0,0.277 -0.224,0.5 -0.5,0.5z"/>
    </g>
   </g>
   <g id="svg_9">
    <path stroke="#ffffff" id="svg_10" d="m19.7055,13.238c-0.276,0 -0.5,-0.224 -0.5,-0.5l0,-12.238c0,-0.276 0.224,-0.5 0.5,-0.5s0.5,0.224 0.5,0.5l0,12.238c0,0.277 -0.224,0.5 -0.5,0.5z"/>
    <path stroke="#ffffff" id="svg_11" d="m24.5545,5.85c-0.128,0 -0.256,-0.049 -0.354,-0.146l-4.495,-4.496l-4.497,4.496c-0.195,0.195 -0.512,0.195 -0.707,0s-0.195,-0.512 0,-0.707l4.851,-4.85c0.094,-0.094 0.221,-0.147 0.354,-0.147l0,0c0.133,0 0.26,0.053 0.354,0.146l4.849,4.85c0.195,0.195 0.195,0.512 0,0.707c-0.099,0.098 -0.227,0.147 -0.355,0.147z"/>
   </g>
   <ellipse id="svg_28" cy="21.555505" cx="18.205505" fill-opacity="null" stroke-width="1.5" stroke="#ffffff" fill="none"/>
  </g>
  <g id="svg_12"/>
  <g id="svg_13"/>
  <g id="svg_14"/>
  <g id="svg_15"/>
  <g id="svg_16"/>
  <g id="svg_17"/>
  <g id="svg_18"/>
  <g id="svg_19"/>
  <g id="svg_20"/>
  <g id="svg_21"/>
  <g id="svg_22"/>
  <g id="svg_23"/>
  <g id="svg_24"/>
  <g id="svg_25"/>
  <g id="svg_26"/>
 </g>
</svg>