<svg width="36.525" height="36.525" xmlns="http://www.w3.org/2000/svg">

 <g>
  <title>background</title>
  <rect fill="#000000" id="canvas_background" height="38.525" width="38.525" y="-1" x="-1"/>
 </g>
 <g>
  <title>Layer 1</title>
  <g id="svg_1">
   <g id="svg_2">
    <path fill="#ffffff" id="svg_3" d="m20.264,36.525c-0.205,0 -0.397,-0.127 -0.471,-0.331c-0.023,-0.065 -2.173,-6.351 5.234,-10.075c-2.305,-2.303 -11.23,-11.883 -11.23,-22.094c0,-0.276 0.224,-0.5 0.5,-0.5s0.5,0.224 0.5,0.5c0,11.037 11.321,21.766 11.436,21.872c0.122,0.114 0.179,0.282 0.151,0.447c-0.028,0.165 -0.136,0.306 -0.289,0.374c-7.357,3.298 -5.446,8.901 -5.361,9.138c0.093,0.26 -0.042,0.546 -0.302,0.64c-0.055,0.02 -0.112,0.029 -0.168,0.029z"/>
    <path fill="#ffffff" id="svg_4" d="m8.331,36.525c-0.056,0 -0.112,-0.01 -0.168,-0.029c-0.259,-0.093 -0.395,-0.378 -0.304,-0.639c0.084,-0.237 1.966,-5.854 -5.36,-9.139c-0.153,-0.068 -0.261,-0.208 -0.289,-0.373c-0.027,-0.165 0.029,-0.333 0.151,-0.447c0.114,-0.106 11.436,-10.835 11.436,-21.872c0,-0.276 0.224,-0.5 0.5,-0.5s0.5,0.224 0.5,0.5c0,10.211 -8.925,19.791 -11.23,22.094c7.407,3.725 5.257,10.01 5.234,10.075c-0.073,0.203 -0.265,0.33 -0.47,0.33z"/>
   </g>
   <path fill="#ffffff" id="svg_5" d="m14.297,22.966c-0.276,0 -0.5,-0.224 -0.5,-0.5l0,-18.441c0,-0.276 0.224,-0.5 0.5,-0.5s0.5,0.224 0.5,0.5l0,18.44c0,0.277 -0.224,0.501 -0.5,0.501z"/>
   <path fill="#ffffff" id="svg_6" d="m14.297,26.491c-1.248,0 -2.263,-1.015 -2.263,-2.263s1.015,-2.263 2.263,-2.263s2.263,1.015 2.263,2.263s-1.016,2.263 -2.263,2.263zm0,-3.525c-0.696,0 -1.263,0.566 -1.263,1.263s0.566,1.263 1.263,1.263s1.263,-0.566 1.263,-1.263s-0.567,-1.263 -1.263,-1.263z"/>
   <path fill="#ffffff" id="svg_7" d="m32.06,4.525c-1.248,0 -2.263,-1.015 -2.263,-2.263s1.015,-2.262 2.263,-2.262s2.263,1.015 2.263,2.263s-1.016,2.262 -2.263,2.262zm0,-3.525c-0.696,0 -1.263,0.566 -1.263,1.263s0.566,1.263 1.263,1.263s1.263,-0.566 1.263,-1.263s-0.567,-1.263 -1.263,-1.263z"/>
   <path fill="#ffffff" id="svg_8" d="m24.771,36.525l-20.949,0c-0.276,0 -0.5,-0.224 -0.5,-0.5s0.224,-0.5 0.5,-0.5l20.949,0c0.276,0 0.5,0.224 0.5,0.5s-0.223,0.5 -0.5,0.5z"/>
   <path fill="#ffffff" id="svg_9" d="m32.06,18.763c-0.276,0 -0.5,-0.224 -0.5,-0.5c0,-8.547 -6.953,-15.5 -15.5,-15.5c-0.276,0 -0.5,-0.224 -0.5,-0.5s0.224,-0.5 0.5,-0.5c9.098,0 16.5,7.402 16.5,16.5c0,0.276 -0.224,0.5 -0.5,0.5z"/>
   <path fill="#ffffff" id="svg_10" d="m16.06,4.525l-3.525,0c-0.276,0 -0.5,-0.224 -0.5,-0.5l0,-3.525c0,-0.276 0.224,-0.5 0.5,-0.5l3.525,0c0.276,0 0.5,0.224 0.5,0.5l0,3.525c0,0.277 -0.224,0.5 -0.5,0.5zm-3.026,-1l2.525,0l0,-2.525l-2.525,0l0,2.525z"/>
   <path fill="#ffffff" id="svg_11" d="m33.822,22.288l-3.525,0c-0.276,0 -0.5,-0.224 -0.5,-0.5l0,-3.525c0,-0.276 0.224,-0.5 0.5,-0.5l3.525,0c0.276,0 0.5,0.224 0.5,0.5l0,3.525c0,0.276 -0.223,0.5 -0.5,0.5zm-3.025,-1l2.525,0l0,-2.525l-2.525,0l0,2.525z"/>
   <path fill="#ffffff" id="svg_12" d="m32.06,18.763c-0.276,0 -0.5,-0.224 -0.5,-0.5l0,-14.238c0,-0.276 0.224,-0.5 0.5,-0.5s0.5,0.224 0.5,0.5l0,14.237c0,0.277 -0.224,0.501 -0.5,0.501z"/>
  </g>
  <g id="svg_13"/>
  <g id="svg_14"/>
  <g id="svg_15"/>
  <g id="svg_16"/>
  <g id="svg_17"/>
  <g id="svg_18"/>
  <g id="svg_19"/>
  <g id="svg_20"/>
  <g id="svg_21"/>
  <g id="svg_22"/>
  <g id="svg_23"/>
  <g id="svg_24"/>
  <g id="svg_25"/>
  <g id="svg_26"/>
  <g id="svg_27"/>
 </g>
</svg>