<svg width="32.771" height="32.771" xmlns="http://www.w3.org/2000/svg">

 <g>
  <title>background</title>
  <rect fill="#000000" id="canvas_background" height="34.771" width="34.771" y="-1" x="-1"/>
 </g>
 <g>
  <title>Layer 1</title>
  <g id="svg_1">
   <g id="svg_2">
    <path fill="#ffffff" id="svg_3" d="m21.59,23.694l0,0l-10.413,-0.003c-0.253,0 -0.467,-0.189 -0.497,-0.441c-0.121,-1.022 -0.478,-2.465 -1.499,-3.526c-0.001,-0.002 -0.002,-0.003 -0.004,-0.005c-2.524,-2.132 -3.971,-5.241 -3.971,-8.54c0.001,-6.164 5.016,-11.179 11.179,-11.179s11.178,5.015 11.178,11.179c0,3.321 -1.465,6.449 -4.019,8.581c-0.98,1.026 -1.337,2.47 -1.458,3.493c-0.028,0.252 -0.242,0.441 -0.496,0.441zm-9.979,-1.003l9.545,0.003c0.187,-1.127 0.64,-2.552 1.708,-3.664c2.366,-1.979 3.7,-4.828 3.7,-7.852c-0.001,-5.612 -4.566,-10.178 -10.179,-10.178s-10.178,4.566 -10.178,10.179c0,3.021 1.333,5.869 3.659,7.812c0.03,0.025 0.057,0.054 0.08,0.085c1.037,1.104 1.48,2.504 1.665,3.615z"/>
    <path fill="#ffffff" id="svg_4" d="m21.59,26.718l-10.413,0c-0.276,0 -0.5,-0.224 -0.5,-0.5s0.224,-0.5 0.5,-0.5l10.413,0c0.276,0 0.5,0.224 0.5,0.5s-0.223,0.5 -0.5,0.5z"/>
    <path fill="#ffffff" id="svg_5" d="m21.59,29.744l-10.413,0c-0.276,0 -0.5,-0.224 -0.5,-0.5s0.224,-0.5 0.5,-0.5l10.413,0c0.276,0 0.5,0.224 0.5,0.5s-0.223,0.5 -0.5,0.5z"/>
    <path fill="#ffffff" id="svg_6" d="m18.564,32.771l-4.36,0c-0.276,0 -0.5,-0.224 -0.5,-0.5s0.224,-0.5 0.5,-0.5l4.36,0c0.276,0 0.5,0.224 0.5,0.5s-0.224,0.5 -0.5,0.5z"/>
   </g>
  </g>
  <g id="svg_7"/>
  <g id="svg_8"/>
  <g id="svg_9"/>
  <g id="svg_10"/>
  <g id="svg_11"/>
  <g id="svg_12"/>
  <g id="svg_13"/>
  <g id="svg_14"/>
  <g id="svg_15"/>
  <g id="svg_16"/>
  <g id="svg_17"/>
  <g id="svg_18"/>
  <g id="svg_19"/>
  <g id="svg_20"/>
  <g id="svg_21"/>
 </g>
</svg>