<svg width="33" height="33" xmlns="http://www.w3.org/2000/svg">
 <g>
  <title>background</title>
  <rect x="-1" y="-1" width="35" height="35" id="canvas_background" fill="#000000"/>
 </g>

 <g>
  <title>Layer 1</title>
  <g id="svg_1">
   <path d="m16.5,33c-5.226,0 -10.809,-2.066 -10.809,-7.864c0,-3.112 1.608,-4.757 3.026,-6.208c1.048,-1.071 1.953,-1.997 1.953,-3.329c0,-4.181 2.289,-6.882 5.83,-6.882c0.276,0 0.5,0.224 0.5,0.5s-0.224,0.5 -0.5,0.5c-3.565,0 -4.83,3.169 -4.83,5.882c0,1.74 -1.087,2.852 -2.238,4.028c-1.348,1.379 -2.741,2.804 -2.741,5.509c0,6.369 7.508,6.864 9.809,6.864c0.276,0 0.5,0.224 0.5,0.5s-0.224,0.5 -0.5,0.5z" id="svg_2" fill="#ffffff"/>
   <path d="m16.5,33c-0.276,0 -0.5,-0.224 -0.5,-0.5s0.224,-0.5 0.5,-0.5c2.301,0 9.809,-0.495 9.809,-6.864c0,-2.705 -1.394,-4.13 -2.741,-5.509c-1.151,-1.177 -2.238,-2.288 -2.238,-4.028c0,-2.713 -1.265,-5.882 -4.83,-5.882c-0.276,0 -0.5,-0.224 -0.5,-0.5s0.224,-0.5 0.5,-0.5c3.542,0 5.83,2.701 5.83,6.882c0,1.332 0.905,2.258 1.953,3.329c1.418,1.451 3.026,3.096 3.026,6.208c0,5.798 -5.583,7.864 -10.809,7.864z" id="svg_3" fill="#ffffff"/>
   <path d="m13.858,16.075c-0.256,0 -0.474,-0.195 -0.498,-0.455c-0.207,-2.279 1.403,-3.767 1.471,-3.828c0.205,-0.185 0.52,-0.168 0.705,0.033c0.186,0.204 0.171,0.52 -0.032,0.706c-0.013,0.013 -1.309,1.226 -1.148,2.999c0.025,0.274 -0.178,0.518 -0.453,0.543c-0.015,0.001 -0.03,0.002 -0.045,0.002z" id="svg_4" fill="#ffffff"/>
   <path d="m16.73,7.478c-0.146,0 -0.237,-0.005 -0.257,-0.006c-0.255,-0.014 -0.458,-0.217 -0.472,-0.472c-0.008,-0.134 -0.159,-3.311 1.763,-5.232c1.921,-1.922 5.099,-1.769 5.231,-1.763c0.254,0.014 0.458,0.217 0.472,0.472c0.008,0.134 0.16,3.311 -1.762,5.232c-1.63,1.63 -4.161,1.769 -4.975,1.769zm5.736,-6.471c-0.881,0.036 -2.789,0.261 -3.995,1.468c-1.211,1.211 -1.434,3.115 -1.469,3.995c0.881,-0.036 2.789,-0.261 3.996,-1.468c1.211,-1.211 1.433,-3.115 1.468,-3.995z" id="svg_5" fill="#ffffff"/>
   <path d="m16.5,7.473c-0.236,0 -0.446,-0.168 -0.491,-0.408c-0.528,-2.815 -3.467,-4.667 -3.497,-4.686c-0.234,-0.146 -0.307,-0.454 -0.161,-0.688c0.146,-0.234 0.454,-0.308 0.688,-0.161c0.136,0.084 3.344,2.107 3.952,5.352c0.051,0.271 -0.127,0.532 -0.399,0.583c-0.031,0.005 -0.062,0.008 -0.092,0.008z" id="svg_6" fill="#ffffff"/>
  </g>
  <g id="svg_7"/>
  <g id="svg_8"/>
  <g id="svg_9"/>
  <g id="svg_10"/>
  <g id="svg_11"/>
  <g id="svg_12"/>
  <g id="svg_13"/>
  <g id="svg_14"/>
  <g id="svg_15"/>
  <g id="svg_16"/>
  <g id="svg_17"/>
  <g id="svg_18"/>
  <g id="svg_19"/>
  <g id="svg_20"/>
  <g id="svg_21"/>
 </g>
</svg>