<svg width="37" height="37" xmlns="http://www.w3.org/2000/svg">

 <g>
  <title>background</title>
  <rect fill="#000000" id="canvas_background" height="39" width="39" y="-1" x="-1"/>
 </g>
 <g>
  <title>Layer 1</title>
  <g id="svg_1">
   <path fill="#ffffff" id="svg_2" d="m16.5,37c-9.098,0 -16.5,-7.402 -16.5,-16.5s7.402,-16.5 16.5,-16.5c0.276,0 0.5,0.224 0.5,0.5l0,15.5l15.5,0c0.276,0 0.5,0.224 0.5,0.5c0,9.098 -7.402,16.5 -16.5,16.5zm-0.5,-31.992c-8.316,0.265 -15,7.113 -15,15.492c0,8.547 6.953,15.5 15.5,15.5c8.379,0 15.227,-6.684 15.492,-15l-15.492,0c-0.276,0 -0.5,-0.224 -0.5,-0.5l0,-15.492z"/>
   <path fill="#ffffff" id="svg_3" d="m36.5,17l-16,0c-0.276,0 -0.5,-0.224 -0.5,-0.5l0,-16c0,-0.276 0.224,-0.5 0.5,-0.5c9.098,0 16.5,7.402 16.5,16.5c0,0.276 -0.224,0.5 -0.5,0.5zm-15.5,-1l14.992,0c-0.26,-8.15 -6.843,-14.732 -14.992,-14.992l0,14.992z"/>
  </g>
  <g id="svg_4"/>
  <g id="svg_5"/>
  <g id="svg_6"/>
  <g id="svg_7"/>
  <g id="svg_8"/>
  <g id="svg_9"/>
  <g id="svg_10"/>
  <g id="svg_11"/>
  <g id="svg_12"/>
  <g id="svg_13"/>
  <g id="svg_14"/>
  <g id="svg_15"/>
  <g id="svg_16"/>
  <g id="svg_17"/>
  <g id="svg_18"/>
 </g>
</svg>