<svg width="32.984" height="32.984" xmlns="http://www.w3.org/2000/svg">

 <g>
  <title>background</title>
  <rect fill="#000000" id="canvas_background" height="34.984" width="34.984" y="-1" x="-1"/>
 </g>
 <g>
  <title>Layer 1</title>
  <g id="svg_1">
   <g id="svg_2">
    <path fill="#ffffff" id="svg_3" d="m16.492,18.672c-1.202,0 -2.18,-0.979 -2.18,-2.181s0.978,-2.18 2.18,-2.18s2.18,0.978 2.18,2.18s-0.979,2.181 -2.18,2.181zm0,-3.36c-0.65,0 -1.18,0.529 -1.18,1.18c0,0.651 0.529,1.181 1.18,1.181s1.18,-0.529 1.18,-1.181c0,-0.651 -0.53,-1.18 -1.18,-1.18z"/>
    <path fill="#ffffff" id="svg_4" d="m11.821,21.662c-0.128,0 -0.256,-0.049 -0.354,-0.146c-1.342,-1.342 -2.081,-3.126 -2.081,-5.023c0,-1.898 0.739,-3.683 2.081,-5.024c0.195,-0.195 0.512,-0.195 0.707,0s0.195,0.512 0,0.707c-1.153,1.153 -1.788,2.687 -1.788,4.317c0,1.63 0.635,3.163 1.788,4.316c0.195,0.195 0.195,0.512 0,0.707c-0.097,0.097 -0.225,0.146 -0.353,0.146z"/>
    <path fill="#ffffff" id="svg_5" d="m8.5,24.984c-0.128,0 -0.256,-0.049 -0.354,-0.146c-2.229,-2.229 -3.457,-5.192 -3.457,-8.346c0,-3.152 1.228,-6.116 3.457,-8.346c0.195,-0.195 0.512,-0.195 0.707,0s0.195,0.512 0,0.707c-2.041,2.04 -3.164,4.753 -3.164,7.639s1.124,5.599 3.164,7.639c0.195,0.195 0.195,0.512 0,0.707c-0.098,0.097 -0.225,0.146 -0.353,0.146z"/>
    <path fill="#ffffff" id="svg_6" d="m5.178,28.306c-0.128,0 -0.256,-0.049 -0.354,-0.146c-6.433,-6.434 -6.433,-16.901 0,-23.335c0.195,-0.195 0.512,-0.195 0.707,0s0.195,0.512 0,0.707c-6.043,6.044 -6.043,15.877 0,21.921c0.195,0.195 0.195,0.512 0,0.707c-0.097,0.097 -0.225,0.146 -0.353,0.146z"/>
   </g>
   <g id="svg_7">
    <path fill="#ffffff" id="svg_8" d="m21.163,21.662c-0.128,0 -0.256,-0.049 -0.354,-0.146c-0.195,-0.195 -0.195,-0.512 0,-0.707c1.153,-1.153 1.788,-2.687 1.788,-4.316c0,-1.631 -0.635,-3.164 -1.788,-4.317c-0.195,-0.195 -0.195,-0.512 0,-0.707s0.512,-0.195 0.707,0c1.342,1.342 2.081,3.126 2.081,5.024c0,1.897 -0.739,3.682 -2.081,5.023c-0.097,0.097 -0.225,0.146 -0.353,0.146z"/>
    <path fill="#ffffff" id="svg_9" d="m24.484,24.984c-0.128,0 -0.256,-0.049 -0.354,-0.146c-0.195,-0.195 -0.195,-0.512 0,-0.707c2.041,-2.04 3.164,-4.753 3.164,-7.639s-1.124,-5.599 -3.164,-7.639c-0.195,-0.195 -0.195,-0.512 0,-0.707s0.512,-0.195 0.707,0c2.229,2.229 3.457,5.193 3.457,8.346c0,3.153 -1.228,6.117 -3.457,8.346c-0.097,0.097 -0.225,0.146 -0.353,0.146z"/>
    <path fill="#ffffff" id="svg_10" d="m27.806,28.306c-0.128,0 -0.256,-0.049 -0.354,-0.146c-0.195,-0.195 -0.195,-0.512 0,-0.707c6.042,-6.044 6.042,-15.877 0,-21.921c-0.195,-0.195 -0.195,-0.512 0,-0.707s0.512,-0.195 0.707,0c6.433,6.434 6.433,16.901 0,23.335c-0.097,0.097 -0.225,0.146 -0.353,0.146z"/>
   </g>
  </g>
  <g id="svg_11"/>
  <g id="svg_12"/>
  <g id="svg_13"/>
  <g id="svg_14"/>
  <g id="svg_15"/>
  <g id="svg_16"/>
  <g id="svg_17"/>
  <g id="svg_18"/>
  <g id="svg_19"/>
  <g id="svg_20"/>
  <g id="svg_21"/>
  <g id="svg_22"/>
  <g id="svg_23"/>
  <g id="svg_24"/>
  <g id="svg_25"/>
 </g>
</svg>