<?xml version="1.0" encoding="utf-8"?>
<!-- Generator: Adobe Illustrator 20.1.0, SVG Export Plug-In . SVG Version: 6.00 Build 0)  -->
<svg version="1.1" id="Layer_1" xmlns="http://www.w3.org/2000/svg" xmlns:xlink="http://www.w3.org/1999/xlink" x="0px" y="0px"
	 viewBox="0 0 60 60" style="enable-background:new 0 0 60 60;" xml:space="preserve">
<style type="text/css">
	.st0{fill:#010101;}
</style>
<g>
	<g transform="translate(0.000000,512.000000) scale(0.100000,-0.100000)">
		<path class="st0" d="M258,5119c-44.8-2.4-73-12.1-85.6-29.6c-6.1-8.2-8.2-22.3-4.8-31.1c7.2-18.4,29.3-34.4,62.2-45.3
			c9.8-3.1,30.2-7.4,31.7-6.6c0.6,0.4,8.2,22.9,8.2,24.4c0,0.1-3.1,0.6-6.9,1.1c-9.4,1-29.5,7.2-38.5,12
			c-10.6,5.6-17.8,14.9-18.9,24c-1.1,9.3,3,14.3,14.4,19.1c14.1,5.5,32,7.2,81.3,7.2s67.2-1.7,81.3-7.2c11.5-4.7,15.6-10,14.4-19
			c-1.7-15.7-18-27.4-47.4-34.2l-11.7-2.8l1.1-4.9c0.7-2.8,2-8.3,3.1-12.4l2-7.3l9.4,1.8c20.7,4,43.5,13.3,58.9,24
			c17.4,12.4,25.2,26.1,23.3,41.9c-2.4,20.8-24.6,35.9-61.5,41.9C351.2,5119.8,298.4,5121.1,258,5119z"/>
		<path class="st0" d="M300,5034.3c-4.3-6.4-12.4-32.9-20.2-65.4c-3.5-14.9-6.5-27.8-6.5-28.6c0-1-4.6-1.4-15.2-1.6
			c-8.5,0-16.9-0.5-18.5-0.8c-2.8-0.7,3.3-5.2,30.6-22.8l33.7-21.9l31.5,22.6l31.3,22.5l-18,0.4L331,4939l-1.1,3.8
			c-0.4,2.2-3,14.7-5.7,27.9c-7.6,38.5-15,64.4-19.3,67.2C303.8,5038.6,301.9,5037.3,300,5034.3z"/>
		<path class="st0" d="M163.9,4916c-38.7-3-76.7-14.8-102.8-32c-35-23.2-53.5-55.5-58.2-101.8C-2.8,4722.7,17,4659,56.1,4612
			c40.2-48.4,101.1-84.3,152.8-90.1c31.1-3.5,59.5,7,67.6,25.1c3,6.8,2.6,16.3-1.1,31.4c-6.1,23.8,3.3,71.5,16.3,81.8l3.3,2.8l3-3.7
			c5.4-6.6,12.2-23.9,15.4-38.4c3-14.1,2.8-32.3-0.4-62c-1.3-11.9,0.9-17.4,10.4-26c11.1-9.9,33.3-14.8,54.6-12.1
			c43,5.5,100,38.1,145.8,83.5c46.7,46.1,70.9,94.2,75.4,149.5c5.2,63.3-14.8,105.6-64.1,135.9c-25.7,15.9-50.8,23.8-82.4,26.4
			c-28.9,2.3-29.5,2.2-42.8-6.4c-20.2-13.2-41.7-21.4-69.3-26.8c-22.4-4.3-53.7-4.7-75.6-0.6c-24.8,4.6-38.5,10-58.7,23.2
			C186.3,4918.4,188.7,4917.8,163.9,4916z M170.4,4881.9c4.6-10.1,16.7-24.6,28-33.5c18.7-14.7,44.8-25,73.7-29.1
			c17.6-2.5,49.6-1.9,67.1,1.1c15.2,2.8,36.3,9.3,49.8,15.6c23.2,10.7,48,31.1,55.9,46.1c4.1,7.2,5,7.3,21.3,3.8
			c26.3-5.8,51.3-20.3,68-39.7c8-9.1,16.3-26.1,20-40.3c4.3-16.2,4.1-52.1-0.2-73.3c-9.8-48.5-41.9-96.7-91-136.4
			c-37-30-85.6-53-101.9-48.3c-7.2,2.2-8.3,5.9-5,18.5c2,8.4,2.6,16.5,1.9,32.2c-1.9,40.4-15.2,72.1-36.1,86
			c-21.1,14.2-51.3,8.5-68.7-12.6c-16.7-20.7-25.9-61.9-20.7-92c4.6-26.1,4.6-26.2,0.2-28.8c-8.5-4.9-28.5-2.2-50.4,7
			c-47.2,19.6-90.6,60-114.3,106.1c-16.1,31.6-23,60.6-23,98.4c0,36.8,6.9,59.8,24.3,81.6c16.3,20.7,47.4,36.8,80.9,42.1
			C167.4,4889.1,167.2,4889.1,170.4,4881.9z"/>
	</g>
</g>
</svg>
