<?xml version="1.0" encoding="utf-8"?>
<!-- Generator: Adobe Illustrator 20.1.0, SVG Export Plug-In . SVG Version: 6.00 Build 0)  -->
<svg version="1.1" id="Layer_1" xmlns="http://www.w3.org/2000/svg" xmlns:xlink="http://www.w3.org/1999/xlink" x="0px" y="0px"
	 viewBox="0 0 60 60" style="enable-background:new 0 0 60 60;" xml:space="preserve">
<style type="text/css">
	.st0{fill:#010101;}
</style>
<g>
	<g transform="translate(0.000000,512.000000) scale(0.100000,-0.100000)">
		<path class="st0" d="M263,5119.1c-3.8-0.3-15.6-1.4-26.5-2.4c-67.2-5.8-126.8-24.8-168.6-53.9c-26.9-18.7-44.7-38.7-56.2-62.7
			c-7.4-15.9-8.5-20.9-10.7-57.8c-2.4-37.4-0.6-58.6,6.2-73.1c4.8-10.4,14.2-20.3,21.3-22.9l4.4-1.6v-16.8
			c0-22.9,2.6-31.6,12.7-42.1c11.7-12.3,17.6-13.5,57.5-12.7l32.2,0.5l2.6-7.2c2.9-8.6,12-18.9,20.9-23.6c3.6-1.9,6.8-3.6,7.1-3.9
			c0.5-0.3,1.1-14,1.7-30.2c0.8-28.8,0.9-29.5,5.3-37.9c5.4-10.2,15.1-19.5,24.7-23.1c6.2-2.5,13.8-3,59.6-3.5l52.7-0.5l34.1-38
			l34.1-38v-22.3v-22.5h15.1h15.1v25c0,13.8-0.8,27-1.5,29.4c-0.9,2.2-13.6,17.6-28.5,34.1c-14.7,16.3-29.1,32.5-31.6,35.7l-5,6
			l3.6,2.4c3.5,2.5,4.1,1.9,34.4-25.9c17-15.6,31.3-29.2,31.8-30.2c0.6-0.9,4.8-18.7,9.7-39.4c4.8-20.7,9.2-38.3,9.8-39
			c0.9-1.1,25.4,4.4,27.1,6c0.3,0.3-4.1,20.6-9.8,44.8l-10.3,44.2l-51.9,47.9c-28.6,26.4-51.9,48.4-51.9,48.9c0,0.3,5-2,11-5.5
			c5.9-3.3,35.3-19.8,65.1-36.5c30.3-17,55.2-31.7,56.3-33.6c1.2-1.9,7.4-25.8,13.8-53c6.4-27.2,11.8-49.7,12.1-50
			c0.8-0.8,26.3,4.9,27.1,6.1c0.3,0.6-4.8,24.2-11.5,52.7c-12.6,54.1-15,60.8-24.5,69.3c-2.7,2.5-31,19-62.8,36.8
			c-48.6,27-57.8,32.7-57.5,35.4c0.5,3,1.8,3.1,36,3.9c37.8,0.8,39.2,1.1,49.9,9.7c5.1,4.1,13.3,16.3,14.4,21.4l0.8,4.2l32.4-0.5
			c38-0.8,44.7,0.6,55.7,10.7s13.8,17.6,14.5,41.2l0.6,19.8l6.1,2.8c3.3,1.6,8.6,6,11.8,9.7c14.5,17,17.6,45,12,107.2
			c-2.9,30.3-13,51.4-36.9,76.2c-38.9,40.4-101.6,65.9-186.5,75.6C354.3,5118.5,278.2,5120.5,263,5119.1z M343.2,5088.6
			c89.3-5.8,155-28.8,194.9-68.2c11-10.8,22.2-26.7,26.5-37.4c5-12.3,8.2-82.5,4.4-94.8c-1.8-5.8-2.4-4.1-4.5,12.6
			c-3.3,26.4-14.1,46.5-29.1,54.7c-7.7,4.2-9.2,4.6-22.1,3.9c-16-0.6-26-4.9-38.3-16.3c-7.9-7.4-18.2-22.8-22.2-33.6
			c-1.4-3.5-2.9-6.3-3.5-6.3c-0.5,0-2.4,2.8-4.4,6.4c-13.2,23.7-38.7,38-68.4,38.2c-31.8,0-54.3-11.8-70.5-36.9l-7-11l-4.7,8.3
			c-10.7,19.6-31.3,34.1-54.5,38.3c-34.8,6.4-67.2-7.7-85.2-37.2l-3.9-6.6l-7,13.8c-8.6,17.3-21.3,31.3-34.4,37.7
			c-7.4,3.6-11.7,4.6-22.7,5.2c-12.7,0.6-14.2,0.3-21.9-3.9c-17-9.3-25.3-26.9-31.2-65.7c-0.9-6.1-1.1-6.1-2.6-2.4
			c-2.1,5.3-2,53.3,0.3,73.9c1.7,13.7,2.9,18.4,7.4,27.5c10.6,21.1,40.6,48.4,69.2,63.2C163.7,5080.9,251.1,5094.6,343.2,5088.6z
			 M95.9,4926.9c21.5-10.2,38.4-55.2,38.4-102.5c0-11.9-0.3-12.9-4.4-17.3l-4.4-4.6H98.2c-26.6,0-27.4,0.2-31.5,3.8l-4.2,3.8v42.3
			c0.2,35.4,0.6,43.7,2.9,52.2c3.2,12.4,7.6,21.4,11,23.6C80.6,4930.7,89.1,4930,95.9,4926.9z M524.7,4926.9
			c10.1-10.5,12.7-25.5,12.9-75.1c0.2-52.8,3.3-48.3-33.4-48.9c-17.7-0.3-28,0.2-30.7,1.3c-6.8,3-8.2,8.6-7.1,30.3
			c2.3,44.5,17.1,82.2,36,91.9C510.8,4930.8,520.8,4931,524.7,4926.9z M248.3,4912.9c10-5.2,19.8-16,25.3-27.7
			c2.4-5.5,4.5-10.4,4.5-10.8c0-0.3-8-1.1-17.7-1.4c-14.2-0.8-20-1.7-28.2-5c-21.2-8.3-38-24.8-48.6-47.5c-5.4-11.5-13-36-13-42.1
			c0-1.7-0.6-4.2-1.4-5.5c-1.1-1.7-2-1.1-3.8,2.7c-2,3.9-2.4,10.4-2.4,33.3c0,39.1,3,58.2,12.3,77.3c11.2,22.9,25,31.4,50.6,30.8
			C238.2,4916.5,242.4,4915.9,248.3,4912.9z M397.3,4914c16.6-6.6,28.3-23.3,35.4-50.9c2.7-10.4,3.3-18.5,3.9-47
			c0.8-30.6,0.6-35-1.8-39.6c-1.4-2.7-4.2-5.8-6.2-6.8c-2.4-1.1-15.3-1.7-35.4-1.7h-31.6l-1.7,9.1c-5.8,30.8-15.4,52.2-31.6,69.9
			l-11.4,12.3l3.5,12.1c6.2,22.2,17.1,36.3,33,42.8C364.1,4918.6,385.6,4918.4,397.3,4914z M291.3,4838.1
			c11.7-5.5,22.6-17,29.2-30.8c5.4-11.3,11.2-33.3,12.9-49.4l1.1-10.8l-16.2,9.1c-15.1,8.5-16.8,9-24.4,8.3
			c-9.2-0.8-14.7-4.9-18.2-13.4c-2.7-6.8-2.7-16.8,0.2-23.1c1.4-2.8,12.9-14.8,25.7-26.7c12.9-11.8,23.5-22.2,23.5-22.9
			c0-3.6-13.9-4.7-61.3-4.6c-55.4,0-58.3,0.5-64,9.3l-3.6,5.5l0.8,40.1c0.6,33.9,1.1,42,3.8,52.8c10.9,43.9,31.3,62.6,66.9,61.5
			C279.5,4842.5,283.6,4841.7,291.3,4838.1z"/>
	</g>
</g>
</svg>
