<?xml version="1.0" standalone="no"?>
<!DOCTYPE svg PUBLIC "-//W3C//DTD SVG 20010904//EN"
 "http://www.w3.org/TR/2001/REC-SVG-20010904/DTD/svg10.dtd">
<svg version="1.0" xmlns="http://www.w3.org/2000/svg"
 width="512.000000pt" height="512.000000pt" viewBox="0 0 512.000000 512.000000"
 preserveAspectRatio="xMidYMid meet">

<g transform="translate(0.000000,512.000000) scale(0.100000,-0.100000)"
fill="#000000" stroke="none">
<path d="M2594 5020 c-114 -30 -190 -74 -275 -159 -87 -86 -130 -162 -160
-279 -79 -312 115 -636 432 -718 125 -33 298 -15 408 41 208 105 333 305 334
535 1 388 -367 678 -739 580z m329 -167 c124 -59 218 -170 252 -298 85 -329
-221 -635 -550 -550 -128 34 -239 128 -297 252 -44 92 -51 217 -19 321 40 132
148 243 281 290 54 19 81 22 165 20 88 -3 108 -7 168 -35z"/>
<path d="M2005 3895 c-253 -46 -466 -207 -653 -493 -201 -309 -312 -770 -316
-1322 -1 -223 -3 -214 109 -534 37 -108 63 -197 60 -207 -4 -11 -143 -150
-310 -310 -359 -344 -370 -359 -370 -499 0 -72 4 -94 28 -145 82 -175 284
-267 450 -205 62 23 64 25 354 281 325 288 454 436 528 606 18 41 34 76 36 78
2 2 2 -159 1 -358 -4 -392 1 -447 46 -530 82 -153 301 -216 476 -138 63 28
131 94 163 160 l28 56 3 530 c3 599 2 616 -69 753 -22 43 -65 108 -95 146
l-56 68 18 62 c12 43 19 114 23 242 l6 182 125 -84 c115 -78 403 -231 527
-282 49 -19 52 -23 47 -49 -79 -410 -322 -1729 -319 -1732 3 -2 34 -10 70 -16
57 -11 65 -11 69 4 3 9 50 259 106 556 55 297 102 550 105 563 l5 22 435 0
435 0 5 -22 c8 -40 65 -481 65 -510 0 -17 -5 -28 -13 -28 -27 0 -125 -81 -155
-127 -17 -27 -39 -78 -48 -113 -40 -156 41 -316 195 -389 47 -22 70 -26 141
-26 72 0 93 4 141 28 67 32 142 109 172 175 17 37 22 66 22 137 0 80 -3 97
-30 148 -16 33 -51 78 -78 102 -46 42 -136 85 -177 85 -11 0 -20 3 -20 7 0 31
-114 842 -126 893 -8 36 -33 103 -56 149 -33 69 -57 102 -132 176 -85 86 -190
160 -264 186 -27 9 -27 11 -27 97 0 67 -5 98 -22 133 -39 87 -83 123 -240 199
-163 79 -383 200 -483 266 -133 87 -210 173 -280 314 l-33 65 28 113 c34 137
31 205 -15 299 -92 187 -362 289 -635 238z m338 -165 c67 -27 147 -94 171
-144 16 -35 23 -146 8 -146 -5 0 -30 25 -57 56 -169 196 -377 232 -530 92
-100 -91 -148 -237 -126 -384 26 -178 136 -355 400 -641 l121 -132 -6 -43 c-3
-24 -9 -134 -13 -246 l-8 -203 -35 -68 -34 -67 82 -87 c101 -106 158 -211 175
-327 18 -116 6 -993 -13 -1040 -52 -123 -239 -160 -344 -68 -19 17 -40 40 -47
52 -9 15 -13 154 -17 511 -5 444 -7 493 -23 522 -23 42 -293 300 -303 290 -2
-2 8 -66 22 -143 21 -110 25 -159 22 -232 -5 -86 -9 -101 -51 -185 -68 -137
-175 -258 -411 -465 -111 -98 -228 -203 -262 -234 -68 -65 -114 -88 -177 -88
-56 0 -140 42 -174 87 -51 67 -60 165 -20 227 9 13 153 155 320 315 229 219
309 302 321 332 31 78 25 106 -113 501 -39 114 -50 218 -39 408 24 454 92 763
224 1021 149 292 350 479 584 544 85 23 277 15 353 -15z m-125 -220 c96 -44
209 -181 295 -360 120 -250 224 -347 581 -545 87 -48 206 -110 265 -137 58
-27 117 -59 129 -71 78 -72 72 -208 -11 -295 -45 -47 -78 -62 -137 -62 -63 0
-132 26 -345 130 -257 126 -417 234 -584 395 -189 182 -344 379 -415 525 -39
81 -41 89 -41 180 0 84 3 101 27 147 53 100 142 136 236 93z m1470 -1489 c192
-97 311 -254 347 -456 8 -48 15 -94 15 -101 0 -12 -70 -14 -410 -14 -225 0
-410 3 -410 8 0 8 53 294 70 378 l11 51 57 5 c78 8 147 42 207 104 28 29 51
52 53 53 1 1 28 -12 60 -28z m660 -1425 c65 -34 105 -99 105 -171 0 -112 -81
-195 -192 -195 -61 0 -97 13 -134 48 -67 63 -84 150 -46 229 19 39 61 83 79
83 4 0 11 -39 15 -86 l7 -86 45 6 c25 3 59 6 75 6 29 0 30 1 24 38 -13 93 -17
142 -11 142 3 0 18 -6 33 -14z"/>
</g>
</svg>
