<?xml version="1.0" encoding="utf-8"?>
<!-- Generator: Adobe Illustrator 20.1.0, SVG Export Plug-In . SVG Version: 6.00 Build 0)  -->
<svg version="1.1" id="Layer_1" xmlns="http://www.w3.org/2000/svg" xmlns:xlink="http://www.w3.org/1999/xlink" x="0px" y="0px"
	 viewBox="0 0 60 60" style="enable-background:new 0 0 60 60;" xml:space="preserve">
<style type="text/css">
	.st0{fill:#010101;}
</style>
<g>
	<g transform="translate(0.000000,512.000000) scale(0.100000,-0.100000)">
		<path class="st0" d="M517.5,5117.4c-2.4-2-4.2-6-6.7-14.4c-7.8-25.7-15.1-31.9-45.5-38.7c-13.6-3-17.3-5.4-17.3-11
			c0-4.7,3.4-8.1,9.6-9.5c37.7-8.3,45.1-13.9,53.1-40.4c2-6.4,4.2-12.7,4.9-13.8c1.6-2.8,7-4.6,11.1-3.6c4.6,1.1,6.7,4.3,9.9,15.8
			c6.7,23.6,14.4,31.6,35.4,37.4c7,1.9,15.2,4,18.2,4.7c6.2,1.4,9.6,4.8,9.6,9.5c0,5.7-3.6,7.9-19.4,11.6c-8.1,1.9-17.2,4.5-20,5.7
			c-11.8,5.3-18.1,14.1-23.4,32.6c-3.6,12.3-7,16.8-13.2,16.8C522.3,5120,519.4,5118.8,517.5,5117.4z M537.9,5062.2
			c3.7-2.9,8.5-6.1,10.6-6.9c2.2-0.8,4-1.8,4-2.2c0-0.4-2.1-1.5-4.6-2.6c-6.6-2.8-16.3-11-20.4-17.5l-3.6-5.4l-3,5.2
			c-3.7,6-13.9,14.9-20.5,17.7c-2.6,1.1-4.8,2.2-4.8,2.6c0,0.5,1.9,1.4,4,2.2c6.1,2.5,17.7,12.4,21.1,18.3l3.2,5.2l3.6-5.5
			C529.4,5070.2,534.2,5065.1,537.9,5062.2z"/>
		<path class="st0" d="M86.3,5078.4c-1.7-1.1-3.6-4.1-4.4-6.8c-10.2-36.3-16.9-46.3-36.2-54.1c-5.2-2.1-16.5-5.5-25.2-7.5
			c-17-3.9-20.5-5.9-20.5-11.8c0-5.9,3.6-8,19.6-11.7c8.2-1.9,15.5-3.8,16-4.1c0.7-0.2-0.9-5.7-3.3-12.1
			c-6.1-15.6-8.1-31.4-6.1-46.8c1.3-9.8,5-20.5,25.1-73l23.4-61.5v-12.3c0-10.3-0.7-13.9-3.7-22.3c-9.3-24.6-13.3-48.3-13.3-76.8
			c0-44.6,9.4-78.2,34-121.5c17.7-31.3,23.3-36,42.7-36.1c7.8,0,10.7,0.6,16.4,3.3c3.8,1.8,8.7,5,10.7,7.3
			c2,2.2,18.6,33.2,36.9,68.6c30.7,59.8,33.6,64.8,39.5,70c6.3,5.5,16,9.1,23.9,9.1c7.9,0,17.6-3.6,23.9-9.1
			c5.9-5.2,8.9-10.2,39.5-70c18.2-35.4,34.9-66.3,36.9-68.6c6.1-6.7,15.9-10.5,26.7-10.5c11,0,18.2,2.7,25.4,9.1
			c5.8,5.3,27.5,42.4,33.8,58.2c21.5,52.7,23.5,110.2,5.8,162.4c-4.4,13-4.9,15.8-4.9,27.4l0.1,12.9l22.1,57.4
			c12.2,31.6,23,61.2,24.2,65.6c3.3,13.1,2.6,35-1.3,48.6c-6.3,21.9-16.9,37.6-35.3,53.1c-23.1,19.3-47.7,28.6-79.4,29.8
			c-21.3,0.8-26,0-70-11.4c-48.5-12.7-46.3-12.7-95.2,0c-19.8,5.2-39.8,10-44.1,10.5c-15.6,2.2-43.2,0.7-53.8-2.9
			c-2.6-0.9-6.2,6.9-11.1,24c-3.4,12-6.1,15.2-12.3,15.2C90.7,5080.1,87.9,5079.3,86.3,5078.4z M97,5028.2
			c5.3-9.8,19.8-22.7,30.1-26.7c4.2-1.5,7.5-3,7.5-3.4s-4-2.2-8.9-4.3c-11.6-4.9-22.9-14.9-28.4-25.2c-2.4-4.3-4.5-7.9-4.9-7.9
			c-0.4,0-2.1,2.9-4,6.7c-4.4,9-18.9,21.9-30,26.6c-4.6,2-8.3,3.7-8.2,4.1c0,0.4,4,2.2,8.9,4.3c11.6,4.9,22.9,14.9,28.4,25.2
			c2.4,4.3,4.5,7.9,4.9,7.9C92.9,5035.5,94.9,5032.2,97,5028.2z M169.2,5025c3.3-0.6,21.1-5,39.6-9.7c18.5-4.8,35.3-9,37.3-9.4
			l3.7-0.7l-4.8-5.5c-8.3-9.6-16.4-26.2-16.4-33.5c0-4.8,4.6-9,9.9-9c6.2,0,8.2,2,12.4,12.4c6.2,15.8,17.8,28.7,32.4,36.2
			c5.2,2.6,57.1,16.6,72.2,19.5c12.2,2.2,37,0.8,49.6-2.9c34.5-10.3,58.8-33.4,68.2-64.6c3.6-11.8,4-31.8,0.8-42.2
			c-1.1-4-11.6-32.2-23.3-62.9c-11.8-30.7-21.9-58.9-22.7-62.7c-2.4-10.8-0.7-27.3,4.1-40.8c9.6-27.4,14-59.2,11.9-87
			c-1.9-23.6-5.3-39-14-62.8c-5.4-14.3-26.8-53.6-31.6-57.8c-4.4-3.9-13.6-3.9-18.4-0.2c-2.2,1.8-14.7,24.5-36.2,66.4
			c-18.1,35-34.9,66.1-37.4,69c-5.7,6.9-15.7,13.6-25,16.9c-10.3,3.6-29.3,3.6-39.6,0c-9.3-3.3-19.2-10-25.1-16.9
			c-2.6-3.2-19-33.6-37.5-69.5c-22.7-44.3-33.8-64.7-36.2-66.2c-4.1-2.9-13.1-3-17-0.2c-3.6,2.5-18.2,26.5-26.2,43
			c-24.8,51.8-28,108-9,164.4c4.6,13.9,5,15.8,4.9,29.5v14.6l-21.5,56.2c-27.9,72.7-27,69.6-27,86.7c-0.1,14.2,0.7,18.6,5.9,31.4
			l2.8,6.8l4.5-3.9c8.6-7.3,12.4-14.8,18.9-36.7c4.2-13.8,6.6-17,13.2-17c6.7,0,9,3,13.3,18c4.9,17.5,11.1,29.4,18.4,35.9
			c7.3,6.4,20.4,11.7,40.3,16.3c17.2,3.9,20.5,5.9,20.5,12.1c0,4.2-5.3,9.1-9.6,9.1c-9.4,0-47.2,13.2-47.2,16.4
			c0,0.6,1.6,1.3,3.7,1.5C139.3,5026.4,163.5,5026.1,169.2,5025z"/>
	</g>
</g>
</svg>
