<?xml version="1.0" encoding="utf-8"?>
<!-- Generator: Adobe Illustrator 20.1.0, SVG Export Plug-In . SVG Version: 6.00 Build 0)  -->
<svg version="1.1" id="Layer_1" xmlns="http://www.w3.org/2000/svg" xmlns:xlink="http://www.w3.org/1999/xlink" x="0px" y="0px"
	 viewBox="0 0 60 60" style="enable-background:new 0 0 60 60;" xml:space="preserve">
<style type="text/css">
	.st0{fill:#010101;}
</style>
<g>
	<g transform="translate(0.000000,512.000000) scale(0.100000,-0.100000)">
		<path class="st0" d="M218.5,5116.6c-2.7-1.9-5.1-5.3-5.6-8c-0.7-3.2,2.7-27.4,10.4-72.7c10.4-62.4,11.7-68.3,15.3-72.6
			c5.6-7,14-6.6,19.1,0.5c2,2.9,3.8,7.3,3.8,9.9c0,6.1-21.2,130.7-23.2,136.7c-1.7,4.9-7.8,9.7-12.4,9.7
			C224.3,5120,220.9,5118.5,218.5,5116.6z"/>
		<path class="st0" d="M347.7,5097.9c-3.9-2.7-50.3-110.8-50.3-117.3c0-7.5,2.3-11.7,7.7-14.4c5.8-2.7,11.6-1.5,15.2,3.2
			c1.4,1.9,13.3,28,26.3,58.1c25.4,59,25.6,59.1,18.1,68C360.9,5099.9,352.5,5101.1,347.7,5097.9z"/>
		<path class="st0" d="M122.3,5016.1c-1.6-1-3.6-4.4-4.8-7.6c-4-11.4-2.2-13.6,43.2-52.2c22.5-19.2,42.7-35.5,44.8-36
			c4.2-1.4,11.8,2.7,14,7.5c2.3,5.1,1.7,14.8-1,18.5c-1.4,1.9-20.8,18.9-42.9,37.6c-34.8,29.6-41,34.2-45.5,34.2
			C127.2,5018,123.8,5017.2,122.3,5016.1z"/>
		<path class="st0" d="M358.6,4972.1c-34.4-4.2-61.4-27.4-69.9-59.7c-5.5-20.9-4.9-55.6,1.4-79.7c1.4-5.6,2.5-10.2,2.2-10.2
			s-4.2,2.7-8.7,6.1c-13.6,10.2-39.3,21.1-49.8,21.1c-2.2,0-5.2,1.9-7.2,4.4c-18.1,22.9-51.7,42.3-76.8,44.4
			c-28,2.2-49.2-12.4-62.8-43.3c-10.7-24.5-12.3-32.1-13-61.9l-0.6-26.9h-6.1c-10.8,0-54.3-6.8-59.2-9.2c-5.8-2.9-8.1-7.1-8.1-15
			c0-7.6,3.3-12.7,9.8-15c7.5-2.4,19.1-2,23.7,0.7c3,1.9,27,6.1,34.4,6.1c1.7,0-1.7-10.2-11.3-34c-16.5-41-22.1-73.1-17.5-98.9
			c3-16.1,18.1-29.1,30.8-26.2c11.1,2.5,16.5,9.3,29.7,38.4c11.7,25.7,18.9,37.4,32.2,52.2c11.6,12.9,18.1,16.3,24,12.6
			c4.2-2.7,5.1-8.3,4-25.5c-1.2-20.7-6.6-41.6-17.9-68.2c-8.8-20.7-9.8-24-9.8-33.3c0-8.3,0.7-11.6,3.9-17.2
			c4.5-8.2,14-14.1,22.2-14.1c7.1,0,20.5,7.5,30.6,17c10.1,9.5,25.7,33.5,35.8,54.9c16.3,34.3,19.6,40.6,27.7,50.3
			c4.5,5.3,13.4,13.9,19.8,18.9c21.5,17,34.8,34.8,44.8,59.8l4.6,11.9l0.9-28.7c1.9-55.6,9.8-90.6,25.8-113.4
			c11.4-16.3,34.2-17.5,44.9-2.2c6.1,8.7,7.1,14.8,8.2,50.5c1.6,45,6.5,72.4,16.5,92.5c3.5,7,10.7,12.9,15.7,12.9
			c4.3,0,10.3-7.8,15-20.1c10-25.3,15.2-59.8,14.6-97.2c-0.3-17.3,0.1-22.4,2.2-28c5.3-14.1,14.3-21.2,26.6-21.2
			c14.6,0.2,23.5,9,33.8,33.1c10,23.8,14,49,15.3,95.7c0.7,25.3,1.2,29.2,3.2,29.2c1.3,0,8.8-1.2,16.8-2.5
			c22.1-3.7,27.6-3.4,31.8,1.9c5.8,7.5,4.5,20.2-2.5,24.6c-1.7,1-11.6,3.4-21.8,5.1c-10.3,1.7-19.1,3.4-19.5,3.9
			c-1,1.4,3.2,12.1,12.6,32.3c9.2,20.1,13.9,35.9,16.2,56.4c3.3,29.7-0.9,58.3-11.1,75.6c-9.7,16.5-27.9,30.3-48.2,36.2
			c-22,6.6-55.3,4.9-78-4.1c-8.2-3.2-8.5-3.2-16.3-0.2C405.8,4972.6,382.7,4975,358.6,4972.1z M406.5,4937.1
			c4.8-1.2,19.8-8.8,33.4-17c23.8-14.1,25-14.6,29.9-12.7c10.5,4.1,12.9,17.2,4.8,26.7l-4.9,5.8l5.2,1c2.7,0.7,11,0.7,18.2,0.2
			c28.2-2.2,46.8-13.9,54.4-34c2.9-7.6,3.3-11.4,3.3-29.2c0-26.9-2-34.7-16.9-69c-15.9-36.4-18.2-47.4-19.9-94.2
			c-1.3-36.5-2.9-53.2-6.5-69.3c-3.3-15.3-13.4-37.6-15.7-34.8c-0.6,0.7-1.2,14.8-1.3,31.4c-0.4,33.7-3.2,52.9-11.1,79.9
			c-9,30.1-19.9,46.6-34.8,52.5c-18.2,7-39.6-4.4-51-27.2c-11.6-23.1-17.9-57.3-19.4-102.5c-0.6-18-1.4-33.3-2.2-34
			c-2.5-2.9-12.3,18.9-15.9,35.7c-4,18.7-6.9,55.9-4.6,60.3c0.4,1,7.1,7,14.6,13.1c7.5,6.1,14.3,12.6,15.2,14.4
			c2.7,5.9,1.7,14.4-2.3,19.4c-5.6,6.5-12.4,5.9-22-1.7c-4.3-3.4-7.9-5.8-8.1-5.4c-1.4,2.2-3.8,20.7-2.7,21.8
			c0.6,0.7,11.3,9.2,23.5,18.7s24.1,19.4,26.4,21.8c7.9,8.8,3.5,24.8-7.7,26.9c-4.8,0.9-7.4-0.7-29.3-17.8l-24.1-18.9l-4.2,8.8
			c-2.5,4.8-4,9.3-3.6,10c0.3,0.8,12.3,11,26.4,22.8c27,22.4,30.3,26.7,28.4,35.9c-1.6,7-7.2,12.6-12.9,12.6
			c-5.3,0-6.4-0.7-36.4-25.8c-19.8-16.7-18.3-17.2-20.1,6.5c-3.3,44.4,14,67,54,70.4C384.1,4941.2,394.1,4940.7,406.5,4937.1z
			 M158.4,4864.2c11.4-3.1,29-13.6,39.4-23.5c5.1-4.6,12.7-15.1,20.7-28.6c13-21.4,16.3-25.2,22.4-25.3c7.8,0,13.1,6.3,13.3,15.8
			c0,3.9,0.7,6.3,1.9,6.3c3.5,0,20.2-12.7,27.1-20.6c9.4-10.7,13.3-20.4,13.3-32.5c0-8.2-1-12.4-6.1-24.1
			c-7.5-18-17.3-30.8-33.2-43.5c-23.7-18.7-35.4-34.3-50.4-67.1c-11-24.3-15-31.6-24.3-45.2c-6.5-9.7-20.2-23.1-21.8-21.4
			c-0.3,0.3,2.7,7.8,6.6,16.7c14,31.3,21.1,63.9,20.1,93c-0.6,19.9-3,27.7-10.8,36.2c-7.7,8.5-13.3,10.9-25.7,10.9
			c-10.4,0-12.4-0.5-20.5-5.8c-18.3-11.6-41.7-44.9-57.3-81.4c-6.9-16.1-8.8-16-7.7,1c1.2,17.3,6.4,36.7,17.6,64.9
			c15.7,39.8,18.1,50.8,18.1,90.3c0,30.8,1.3,38.6,9,56.6c5.8,13.4,9.5,19.2,15.2,23.5C134.9,4867.1,143.8,4868.3,158.4,4864.2z"/>
	</g>
</g>
</svg>
